<svg version="1.2" baseProfile="tiny-ps" xmlns="http://www.w3.org/2000/svg" viewBox="0 0 38 50" width="38" height="50">
	<title>Layer 1</title>
	<style>
		tspan { white-space:pre }
		.shp0 { fill: #f63d37 } 
		.shp1 { fill: #ffffff } 
		.shp2 { fill: #2c2e35 } 
	</style>
	<g id="Layer 1">
		<g id="&lt;Group&gt;">
			<path id="&lt;Path&gt;" class="shp0" d="M0.31 0.65L37.66 0.65L37.66 38.08L0.31 38.08L0.31 0.65Z" />
			<path id="&lt;Path&gt;" class="shp1" d="M33.53 7.76L29.34 14.54C28.88 15.31 28.95 15.9 29.16 16.48L35.53 32.78L9.15 32.78C6.78 32.78 4.95 30.88 4.95 28.61L4.93 6.92C4.99 4.12 9.07 4.07 9.15 6.91L9.15 27.24C9.14 27.88 9.71 28.61 10.45 28.59L29.78 28.59L24.78 16.82C24.64 16.37 24.56 15.92 24.56 15.47C24.56 14.97 24.78 14.18 25.1 13.53L29.69 5.97C30.03 5.29 30.72 4.83 31.53 4.8C32.68 4.75 33.66 5.54 33.7 6.75C33.71 6.99 33.65 7.52 33.53 7.76Z" />
			<path id="&lt;Path&gt;" class="shp1" d="M18.98 21.46L18.98 6.91C18.98 4.07 23.12 4.05 23.17 6.91L23.17 21.62C23.17 24.98 20.65 27.21 17.58 27.21C14.5 27.21 11.98 24.93 11.98 21.62L11.98 6.91C11.98 4.07 16.16 4.07 16.16 6.91L16.16 21.46C16.16 23.41 18.98 23.53 18.98 21.46Z" />
			<path id="&lt;Path&gt;" class="shp2" d="M0.27 41.51L2.35 41.51L2.35 47.16L4.58 47.16L4.58 48.94L0.27 48.94L0.27 41.51Z" />
			<path id="&lt;Path&gt;" class="shp2" d="M5.42 45.94L5.42 41.51L7.5 41.51L7.5 45.89C7.5 46.35 7.58 47.37 8.69 47.37C9.79 47.37 9.88 46.35 9.88 45.89L9.88 41.51L11.96 41.51L11.96 45.94C11.96 46.73 11.79 49.15 8.69 49.15C5.59 49.15 5.42 46.73 5.42 45.94Z" />
			<path id="&lt;Path&gt;" class="shp2" d="M13.31 41.51L15.39 41.51L15.39 44.63L17.63 41.51L20.07 41.51L17.25 45.11L20.15 48.94L17.55 48.94L15.39 45.75L15.39 48.94L13.31 48.94L13.31 41.51Z" />
			<path id="&lt;Path&gt;" class="shp2" d="M29.59 41.51L31.67 41.51L31.67 48.94L29.59 48.94L29.59 41.51Z" />
			<path id="&lt;Path&gt;" class="shp2" d="M33.2 41.51L35.28 41.51L35.28 47.16L37.51 47.16L37.51 48.94L33.2 48.94L33.2 41.51Z" />
			<path id="&lt;Compound Path&gt;" fill-rule="evenodd" class="shp2" d="M20.22 45.23C20.22 43.2 21.53 41.22 24.31 41.22C27.09 41.22 28.39 43.2 28.39 45.23C28.39 47.26 27.09 49.25 24.31 49.25C21.53 49.25 20.22 47.26 20.22 45.23ZM26.2 45.23C26.2 43.77 25.3 43.04 24.31 43.04C23.32 43.04 22.42 43.77 22.42 45.23C22.42 46.7 23.32 47.42 24.31 47.42C25.3 47.42 26.2 46.7 26.2 45.23Z" />
		</g>
	</g>
</svg>